<?xml version="1.0" encoding="UTF-8"?>
<svg id="Layer_1" data-name="Layer 1" xmlns="http://www.w3.org/2000/svg" viewBox="0 0 987.29 402.51">
  <defs>
    <style>
      .cls-1 {
        fill: #fff;
      }

      .cls-2 {
        fill: #161616;
      }
    </style>
  </defs>
  <path class="cls-2" d="m946.22,292.82h-6.93v-64.69c0-7.47-3.14-14.2-8.17-18.96h0s-36.34-36.46-36.34-36.46c-10.05-13.31-25.66-27.19-47.51-26.16-21.84-1.03-40.48,8.9-46.83,24.32-1.84,4.46-2.44,8.89-2.41,12.88-4.84-21.91-24.36-38.3-47.73-38.3h0c-10.77,0-20.73,3.49-28.81,9.4v-17.33c0-5.18-3.67-9.45-8.42-10.11,5.32-8.18,8.42-17.91,8.42-28.37,0-15.06-8.17-27.99-16.68-38.2h0s-22.67-28.54-22.67-28.54c-14.9-18.75-36.92-29.59-60.13-29.59h-103.33c-17.46,0-32.11,12.67-36.11,29.76-7.23-17.51-23.8-29.76-43.09-29.76h-155.57v16.04c-9.76-11.48-24.2-18.76-40.34-18.76-29.38,0-53.2,24.1-53.2,53.83,0,11.21,3.39,21.62,9.19,30.24h-9.19c0,24,11.26,46.96,24.32,62.94-4.41-1.01-9.02-1.56-13.76-1.56-20.11,0-37.85,9.59-48.32,24.17-10.05-14.64-26.3-24.17-44.65-24.17-10.22,0-19.78,2.96-28,8.11-7.99-5.14-17.4-8.11-27.47-8.11-12.92,0-24.74,4.89-33.89,12.97,0-.01-.01-.02-.02-.04C7.21,168.18,0,182.7,0,198.91v159.33l40,41.6h392.27v-17.41c7.96,11.92,24.04,20.08,42.58,20.08,21.68,0,39.99-11.14,45.9-26.43l22.99,23.76h62.13c19.81,0,24.71-2.46,25.73-9.76v9.76h117.47v-12.76c9.21,9.37,23.86,15.43,40.36,15.43,22.41,0,41.4-11.19,48-26.67,6.58,15.48,25.54,26.67,47.91,26.67,12.09,0,23.19-3.27,31.87-8.72l9.82,6.05h60.27v-63.11l-41.07-43.91Z"/>
  <g>
    <path class="cls-1" d="m197.14,156.09c-22.34-.01-41.02,18.58-41.02,38.81v146.36h32.7v-38.65l16.62.02v38.63h32.69v-146.31c0-21.44-18.66-38.85-41-38.86Zm8.31,111.75h-16.62v-72.91h16.62v72.91Z"/>
    <path class="cls-1" d="m293.28,158.65l-41.7-.15v182.75h32.74v-146.27h16.46v37.65h-8.34v34.85h8.34v73.77h32.69v-73.75c0-8.43-4.41-15.95-11.32-21.07,6.91-5.1,11.3-12.63,11.32-21.03v-30.4c0-20.06-18-36.35-40.19-36.35Z"/>
    <polygon class="cls-1" points="346.92 341.26 379.61 341.26 379.61 158.6 346.92 158.58 346.92 341.26"/>
    <path class="cls-1" d="m434.97,156.26c-22.62-.01-40.99,17.35-40.99,38.8v109.97c0,21.45,18.36,38.85,40.99,38.86,22.64.02,41.02-17.34,41.02-38.8v-109.96c0-21.46-18.37-38.85-41.02-38.86Zm8.33,148.8l-16.62-.02v-109.96h16.62v109.98Z"/>
    <path class="cls-1" d="m843.92,156.55h0c-22.65,0-41,17.35-41,38.81v32.65c0,20.81,7.8,26.78,31.57,34.53,17.24,5.64,17.76,8.27,17.76,17.66v25.12l-16.62-.02v-36.71l-32.7-.03v36.73c0,21.47,18.35,38.86,41,38.89,22.66.02,41.01-17.35,41.01-38.85v-32.49c0-20.8-7.79-26.76-31.56-34.53-17.24-5.63-17.75-6.11-17.75-17.71v-25.23h16.62v36.89l32.68.02v-36.87c0-21.44-18.36-38.85-41.01-38.87Z"/>
    <path class="cls-1" d="m653.65,158.89h0s-41.65-.13-41.65-.13v182.5h32.68v-146.02h16.46v37.66h-8.33v34.78h8.33v73.57h32.69v-73.54c0-8.41-4.38-15.94-11.31-21.04,6.91-5.09,11.29-12.59,11.31-20.98v-30.42c0-20.07-17.99-36.36-40.19-36.38Z"/>
    <polygon class="cls-1" points="898.32 341.26 932.48 341.26 932.48 305.02 898.32 304.99 898.32 341.26"/>
    <path class="cls-1" d="m789.47,195.34c0-21.46-18.36-38.84-41.01-38.85-22.64-.02-41.01,17.34-41.01,38.78v109.98c0,21.44,18.37,38.85,41.01,38.86,22.65.02,41.02-17.35,41.02-38.84h-.02s0-109.94,0-109.94Zm-32.69,109.94l-16.61-.02v-109.96h16.61v109.98Z"/>
    <path class="cls-1" d="m587.27,246.61c6.89-5.09,11.27-12.58,11.29-20.98h0v-30.41c0-20.07-18-36.36-40.2-36.38h0s-41.65-.13-41.65-.13v182.56h32.69v-146.09l16.45.02v37.66l-8.29-.02v34.79l8.29.02v37.51h-8.29v36.11c23,0,41-16.01,41-36.09v-37.53c0-8.4-4.39-15.94-11.3-21.03Z"/>
    <path class="cls-1" d="m105.84,156.03c-10.96-.01-20.78,5-27.54,13-6.75-8-16.58-13.03-27.52-13.03-20.36-.03-36.87,17.34-36.87,38.79v146.47h32.71v-146.43h15.32v146.43h32.71v-146.41h15.34v146.41h32.69v-146.37c0-21.46-16.5-38.85-36.84-38.86Z"/>
  </g>
  <g>
    <rect class="cls-1" x="529.13" y="59.89" width="39.11" height="25.9"/>
    <path class="cls-1" d="m520.19,128.89l48.05.02v-31.12l-48.05-.02v-49.9l48.05.04v-31.11l-48.05-.03c-18.14-.01-32.85,15.65-32.85,34.97v39.56c.05,20.74,14.72,37.53,32.85,37.57Z"/>
    <path class="cls-1" d="m425.34,50.17h9.44v40.02c23.11-.42,41.22-16.68,41.22-36.69s-18.6-36.76-42.19-36.78h0s-41.88-.05-41.88-.05v112.1l33.41.03V50.17Z"/>
    <path class="cls-1" d="m204,93.72c0,20.47,18.07,37.08,40.34,37.09,22.27.02,40.34-16.56,40.34-37.03v-1.92c0-17.31-14.69-31.35-32.82-31.35l-15.05-.02v-8.97l47.87.03c0-20.55-18.06-37.24-40.34-37.24s-40.29,16.59-40.34,37.09v2.23c.21,17.13,14.81,31,32.81,31.01h15.05v9.11l-47.86-.03Z"/>
    <path class="cls-1" d="m337.48,130.36c22.7.01,41.14-15.59,41.14-34.88V16.67h-.02l.02-.05h-35.79v78.83h-10.7V16.61h-35.81v78.82c0,19.29,18.44,34.91,41.16,34.93Z"/>
    <path class="cls-1" d="m616.39,50.17h9.8v78.78l39.78.02v-29.15c-.02-8.31-4.11-15.59-12.12-20.02,7.52-6.66,12.12-15.91,12.12-26.15,0-20.29-18.07-36.76-41.25-36.78l-41.16-.03v112.09l32.82.03V50.17Z"/>
  </g>
</svg>